<svg xmlns="http://www.w3.org/2000/svg" viewBox="0 0 512 512">
  <defs><linearGradient id="g" x1="0" y1="0" x2="0" y2="1"><stop stop-color="#9fd5ea"/><stop offset="1" stop-color="#0b355b"/></linearGradient></defs>
  <rect width="512" height="512" rx="110" fill="#fbf7ed"/>
  <circle cx="396" cy="112" r="55" fill="#d88b32"/>
  <path d="M0 330 C95 285 140 352 225 316 C325 273 405 322 512 274 V512 H0Z" fill="url(#g)"/>
  <path d="M40 296 C135 255 205 260 285 286 C360 310 420 298 486 265" fill="none" stroke="#0b355b" stroke-width="18" stroke-linecap="round"/>
  <path d="M118 300 V190 M118 245 C85 220 72 187 73 152 M118 236 C155 215 168 181 166 148" stroke="#2d765b" stroke-width="18" stroke-linecap="round" fill="none"/>
  <text x="256" y="430" text-anchor="middle" font-family="Georgia,serif" font-size="92" fill="#fff">LUGANO</text>
</svg>
